<mxfile host="app.diagrams.net" agent="Mozilla/5.0 (Windows NT 10.0; Win64; x64) AppleWebKit/537.36 (KHTML, like Gecko) Chrome/128.0.0.0 Safari/537.36 Edg/128.0.0.0" version="24.7.14">
  <diagram name="Page-1" id="8-zNOVPKbcsB5mVHtp-b">
    <mxGraphModel dx="1797" dy="2770" grid="1" gridSize="10" guides="1" tooltips="1" connect="1" arrows="1" fold="1" page="1" pageScale="1" pageWidth="850" pageHeight="1100" math="0" shadow="0">
      <root>
        <mxCell id="0" />
        <mxCell id="1" parent="0" />
        <mxCell id="ksXm-oh6WnX6pq403uTx-1" value="" style="html=1;overflow=block;blockSpacing=1;whiteSpace=wrap;fontSize=13;spacing=3.8;strokeOpacity=100;rounded=1;absoluteArcSize=1;arcSize=52.5;rotation=90;strokeWidth=NaN;lucidId=pMM~VUYAuJtA;fillColor=#f5f5f5;gradientColor=#b3b3b3;strokeColor=#666666;" vertex="1" parent="1">
          <mxGeometry x="1589.5" y="-1148.5" width="360" height="539" as="geometry" />
        </mxCell>
        <mxCell id="ksXm-oh6WnX6pq403uTx-2" value="" style="html=1;overflow=block;blockSpacing=1;whiteSpace=wrap;shape=image;fontSize=13;spacing=0;strokeColor=none;strokeOpacity=100;rounded=1;absoluteArcSize=1;arcSize=9;strokeWidth=0;image=https://images.lucid.app/images/b9d874aa-f95b-4069-a294-9e27833c3b41/content;imageAspect=0;lucidId=zNM~C8i9.rem;" vertex="1" parent="1">
          <mxGeometry x="1920" y="-1049" width="106" height="90" as="geometry" />
        </mxCell>
        <mxCell id="ksXm-oh6WnX6pq403uTx-3" value="" style="html=1;overflow=block;blockSpacing=1;whiteSpace=wrap;fontSize=13;spacing=3.8;rounded=1;absoluteArcSize=1;arcSize=9;strokeWidth=NaN;lucidId=vTM~wZdCcNM5;" vertex="1" parent="1">
          <mxGeometry x="1590" y="-919" width="330" height="150" as="geometry" />
        </mxCell>
        <mxCell id="ksXm-oh6WnX6pq403uTx-4" value="Application Source Code Repo" style="html=1;overflow=block;blockSpacing=1;whiteSpace=wrap;fontSize=30;fontStyle=1;spacing=3.8;strokeColor=#3a414a;strokeOpacity=100;fillOpacity=100;rounded=1;absoluteArcSize=1;arcSize=9;fillColor=#ffffff;strokeWidth=2.3;lucidId=tUM~sPbk~Uvx;" vertex="1" parent="1">
          <mxGeometry x="1627.5" y="-902" width="255" height="116" as="geometry" />
        </mxCell>
        <mxCell id="ksXm-oh6WnX6pq403uTx-7" value="" style="html=1;overflow=block;blockSpacing=1;whiteSpace=wrap;fontSize=13;spacing=3.8;strokeOpacity=100;rounded=1;absoluteArcSize=1;arcSize=36;strokeWidth=5.3;lucidId=HXM~fZ~lyPYk;fillColor=#bac8d3;strokeColor=#23445d;" vertex="1" parent="1">
          <mxGeometry x="998" y="-612" width="2503" height="1886" as="geometry" />
        </mxCell>
        <mxCell id="ksXm-oh6WnX6pq403uTx-8" value="" style="html=1;overflow=block;blockSpacing=1;whiteSpace=wrap;fontSize=13;spacing=3.8;strokeOpacity=100;rounded=1;absoluteArcSize=1;arcSize=9;dashed=1;fixDash=1;strokeWidth=3.8;lucidId=gZM~Ynzb6pyI;fillColor=#d5e8d4;strokeColor=#82b366;" vertex="1" parent="1">
          <mxGeometry x="1150" y="-290" width="2190" height="1370" as="geometry" />
        </mxCell>
        <mxCell id="ksXm-oh6WnX6pq403uTx-10" value="" style="html=1;overflow=block;blockSpacing=1;whiteSpace=wrap;shape=image;fontSize=13;spacing=0;strokeColor=none;strokeOpacity=100;rounded=1;absoluteArcSize=1;arcSize=9;strokeWidth=0;image=https://images.lucid.app/images/6c8b2b73-fd98-4a86-9239-3821768d1878/content;imageAspect=0;lucidId=f4M~P5-lGAzQ;" vertex="1" parent="1">
          <mxGeometry x="3210" y="-600" width="265" height="169" as="geometry" />
        </mxCell>
        <mxCell id="ksXm-oh6WnX6pq403uTx-11" value="" style="html=1;overflow=block;blockSpacing=1;whiteSpace=wrap;shape=image;fontSize=13;spacing=0;strokeColor=none;strokeOpacity=100;rounded=1;absoluteArcSize=1;arcSize=9;strokeWidth=0;image=https://images.lucid.app/images/449cd1cd-fb79-4f65-a6c3-c571100f72f4/content;imageAspect=0;lucidId=N6M~H6Zvnr4e;" vertex="1" parent="1">
          <mxGeometry x="3118" y="-258" width="192" height="192" as="geometry" />
        </mxCell>
        <mxCell id="ksXm-oh6WnX6pq403uTx-12" value="" style="html=1;overflow=block;blockSpacing=1;whiteSpace=wrap;fontSize=13;spacing=3.8;strokeColor=#d6b656;strokeOpacity=100;rounded=1;absoluteArcSize=1;arcSize=9;fillColor=#fff2cc;strokeWidth=3.8;lucidId=T7M~EiTxBNCI;" vertex="1" parent="1">
          <mxGeometry x="1362" y="-110" width="1688" height="1070" as="geometry" />
        </mxCell>
        <mxCell id="ksXm-oh6WnX6pq403uTx-13" value="" style="html=1;overflow=block;blockSpacing=1;whiteSpace=wrap;shape=image;fontSize=13;spacing=0;strokeColor=none;strokeOpacity=100;rounded=1;absoluteArcSize=1;arcSize=9;strokeWidth=0;image=https://images.lucid.app/images/9e994132-e42f-43ca-9684-d84e47dd7616/content;imageAspect=0;lucidId=naN~Gr-CzmSO;" vertex="1" parent="1">
          <mxGeometry x="1560" y="-547" width="178" height="178" as="geometry" />
        </mxCell>
        <mxCell id="ksXm-oh6WnX6pq403uTx-14" value="  Artifact Registry" style="html=1;overflow=block;blockSpacing=1;whiteSpace=wrap;fontSize=30;align=left;spacing=3.8;verticalAlign=middle;strokeColor=#3a414a;strokeOpacity=100;fillOpacity=100;rounded=1;absoluteArcSize=1;arcSize=9;fillColor=#ffffff;strokeWidth=2.3;lucidId=_cN~6M.QD8~w;" vertex="1" parent="1">
          <mxGeometry x="1530" y="-375" width="220" height="60" as="geometry" />
        </mxCell>
        <mxCell id="ksXm-oh6WnX6pq403uTx-15" value="Zone: 1" style="html=1;overflow=block;blockSpacing=1;whiteSpace=wrap;fontSize=30;spacing=3.8;strokeOpacity=0;fillOpacity=0;rounded=1;absoluteArcSize=1;arcSize=9;fillColor=#ffffff;strokeWidth=NaN;lucidId=NTha6RGi4zO8;" vertex="1" parent="1">
          <mxGeometry x="1860" y="60" width="180" height="64" as="geometry" />
        </mxCell>
        <mxCell id="ksXm-oh6WnX6pq403uTx-17" value="" style="html=1;overflow=block;blockSpacing=1;whiteSpace=wrap;shape=image;fontSize=13;spacing=0;strokeColor=none;strokeOpacity=100;rounded=1;absoluteArcSize=1;arcSize=9;strokeWidth=0;image=https://images.lucid.app/images/44490da8-54ad-4784-9441-8de896b2b652/content;imageAspect=0;lucidId=tXiaQWnp04sy;" vertex="1" parent="1">
          <mxGeometry x="2796" y="-90" width="234" height="120" as="geometry" />
        </mxCell>
        <mxCell id="ksXm-oh6WnX6pq403uTx-18" value="Zone: 2" style="html=1;overflow=block;blockSpacing=1;whiteSpace=wrap;fontSize=30;spacing=3.8;strokeOpacity=0;fillOpacity=0;rounded=1;absoluteArcSize=1;arcSize=9;fillColor=#ffffff;strokeWidth=NaN;lucidId=Y2ia9gu.z-.l;" vertex="1" parent="1">
          <mxGeometry x="2700" y="60" width="180" height="64" as="geometry" />
        </mxCell>
        <mxCell id="ksXm-oh6WnX6pq403uTx-19" value="" style="html=1;overflow=block;blockSpacing=1;whiteSpace=wrap;fontSize=13;spacing=3.8;strokeColor=#6c8ebf;rounded=1;absoluteArcSize=1;arcSize=9;fillColor=#dae8fc;strokeWidth=NaN;lucidId=07iaL1RpwQTa;" vertex="1" parent="1">
          <mxGeometry x="1460" y="120" width="610" height="717" as="geometry" />
        </mxCell>
        <mxCell id="ksXm-oh6WnX6pq403uTx-20" value="" style="html=1;overflow=block;blockSpacing=1;whiteSpace=wrap;fontSize=13;spacing=3.8;strokeColor=#6c8ebf;rounded=1;absoluteArcSize=1;arcSize=9;fillColor=#dae8fc;strokeWidth=NaN;lucidId=l8iahlP.1lQJ;" vertex="1" parent="1">
          <mxGeometry x="2280" y="124" width="664" height="717" as="geometry" />
        </mxCell>
        <mxCell id="ksXm-oh6WnX6pq403uTx-21" value="" style="html=1;overflow=block;blockSpacing=1;whiteSpace=wrap;fontSize=13;spacing=3.8;strokeOpacity=100;rounded=1;absoluteArcSize=1;arcSize=52.5;strokeWidth=NaN;lucidId=C9iaXVPwazSs;" vertex="1" parent="1">
          <mxGeometry x="1500" y="427" width="308" height="146" as="geometry" />
        </mxCell>
        <mxCell id="ksXm-oh6WnX6pq403uTx-22" value="" style="html=1;overflow=block;blockSpacing=1;whiteSpace=wrap;shape=image;fontSize=13;spacing=0;strokeColor=none;strokeOpacity=100;rounded=1;absoluteArcSize=1;arcSize=9;strokeWidth=0;image=https://images.lucid.app/images/bda6786a-279f-499a-bef4-bef71761800b/content;imageAspect=0;lucidId=69iayikmG.kR;" vertex="1" parent="1">
          <mxGeometry x="1500" y="466" width="210" height="106" as="geometry" />
        </mxCell>
        <mxCell id="ksXm-oh6WnX6pq403uTx-23" value="" style="html=1;overflow=block;blockSpacing=1;whiteSpace=wrap;shape=image;fontSize=13;spacing=0;strokeColor=none;strokeOpacity=100;rounded=1;absoluteArcSize=1;arcSize=9;strokeWidth=0;image=https://images.lucid.app/images/d2e2a75f-3b3b-47c8-826d-4abfdad9e539/content;imageAspect=0;lucidId=t-ia2c8ZOAuc;" vertex="1" parent="1">
          <mxGeometry x="1710" y="390" width="158" height="105" as="geometry" />
        </mxCell>
        <mxCell id="ksXm-oh6WnX6pq403uTx-24" value="" style="html=1;overflow=block;blockSpacing=1;whiteSpace=wrap;fontSize=13;spacing=3.8;strokeOpacity=100;rounded=1;absoluteArcSize=1;arcSize=52.5;strokeWidth=NaN;lucidId=7-ia6U-Kc7mv;" vertex="1" parent="1">
          <mxGeometry x="1479" y="240" width="301" height="120" as="geometry" />
        </mxCell>
        <mxCell id="ksXm-oh6WnX6pq403uTx-25" value="" style="html=1;overflow=block;blockSpacing=1;whiteSpace=wrap;shape=image;fontSize=13;spacing=0;strokeColor=none;strokeOpacity=100;rounded=1;absoluteArcSize=1;arcSize=9;strokeWidth=0;image=https://images.lucid.app/images/d2e2a75f-3b3b-47c8-826d-4abfdad9e539/content;imageAspect=0;lucidId=d_ia6d2W8GCD;" vertex="1" parent="1">
          <mxGeometry x="1697" y="207" width="169" height="113" as="geometry" />
        </mxCell>
        <mxCell id="ksXm-oh6WnX6pq403uTx-26" value="" style="html=1;overflow=block;blockSpacing=1;whiteSpace=wrap;shape=image;fontSize=13;spacing=0;strokeColor=none;strokeOpacity=100;rounded=1;absoluteArcSize=1;arcSize=9;strokeWidth=0;image=https://images.lucid.app/images/27fb8ab1-1369-48d4-91fe-b1b5149b84c4/content;imageAspect=0;lucidId=i_iadYYxllZ9;" vertex="1" parent="1">
          <mxGeometry x="1470" y="240" width="197" height="148" as="geometry" />
        </mxCell>
        <mxCell id="ksXm-oh6WnX6pq403uTx-27" value="" style="html=1;jettySize=18;whiteSpace=wrap;fontSize=13;strokeColor=#3a414a;strokeOpacity=100;strokeWidth=2.3;rounded=1;arcSize=48;edgeStyle=orthogonalEdgeStyle;startArrow=none;lucidId=8cja8KKz08d-;" edge="1" parent="1" target="ksXm-oh6WnX6pq403uTx-26">
          <mxGeometry width="100" height="100" relative="1" as="geometry">
            <Array as="points">
              <mxPoint x="1590" y="-830" />
              <mxPoint x="1305" y="-830" />
              <mxPoint x="1305" y="300" />
            </Array>
            <mxPoint x="1580" y="-830" as="sourcePoint" />
            <mxPoint x="1339.7959999999998" y="228.65" as="targetPoint" />
          </mxGeometry>
        </mxCell>
        <mxCell id="ksXm-oh6WnX6pq403uTx-28" value="Triggers" style="text;html=1;resizable=0;labelBackgroundColor=default;align=center;verticalAlign=middle;fontStyle=1;fontColor=#333333;fontSize=30;" vertex="1" parent="ksXm-oh6WnX6pq403uTx-27">
          <mxGeometry x="-0.41696018281534775" relative="1" as="geometry" />
        </mxCell>
        <mxCell id="ksXm-oh6WnX6pq403uTx-29" value="Application  " style="html=1;overflow=block;blockSpacing=1;whiteSpace=wrap;fontSize=23.3;fontStyle=1;spacing=3.8;strokeOpacity=100;rounded=1;absoluteArcSize=1;arcSize=52.5;strokeWidth=NaN;lucidId=ZfjaIme5~x1B;" vertex="1" parent="1">
          <mxGeometry x="1506" y="660" width="204" height="124" as="geometry" />
        </mxCell>
        <mxCell id="ksXm-oh6WnX6pq403uTx-30" value="" style="html=1;overflow=block;blockSpacing=1;whiteSpace=wrap;fontSize=13;spacing=3.8;strokeOpacity=100;rounded=1;absoluteArcSize=1;arcSize=52.5;strokeWidth=NaN;lucidId=zgjaPkN60fTS;" vertex="1" parent="1">
          <mxGeometry x="1766" y="660" width="220" height="119" as="geometry" />
        </mxCell>
        <mxCell id="ksXm-oh6WnX6pq403uTx-31" value="" style="html=1;overflow=block;blockSpacing=1;whiteSpace=wrap;shape=image;fontSize=13;spacing=0;strokeColor=none;strokeOpacity=100;rounded=1;absoluteArcSize=1;arcSize=9;strokeWidth=0;image=https://images.lucid.app/images/fb1f0222-09ba-4870-adfd-8a522286fe4e/content;imageAspect=0;lucidId=4hjaIn4plrBJ;" vertex="1" parent="1">
          <mxGeometry x="1770" y="672" width="208" height="88" as="geometry" />
        </mxCell>
        <mxCell id="ksXm-oh6WnX6pq403uTx-32" value="" style="html=1;overflow=block;blockSpacing=1;whiteSpace=wrap;fontSize=13;spacing=3.8;strokeOpacity=100;rounded=1;absoluteArcSize=1;arcSize=52.5;strokeWidth=NaN;lucidId=CkjaPs6vv9Az;" vertex="1" parent="1">
          <mxGeometry x="1830" y="480" width="204" height="124" as="geometry" />
        </mxCell>
        <mxCell id="ksXm-oh6WnX6pq403uTx-33" value="" style="html=1;jettySize=18;whiteSpace=wrap;fontSize=13;strokeColor=#3a414a;strokeOpacity=100;strokeWidth=2.3;rounded=1;arcSize=48;edgeStyle=orthogonalEdgeStyle;startArrow=none;exitX=0.5;exitY=-0.009;exitPerimeter=0;entryX=0.423;entryY=1;entryPerimeter=0;lucidId=1lja72Czej2_;" edge="1" parent="1">
          <mxGeometry width="100" height="100" relative="1" as="geometry">
            <Array as="points">
              <mxPoint x="1640.5" y="237" />
              <mxPoint x="1640.5" y="-32" />
            </Array>
            <mxPoint x="1650.0000000000005" y="236.92000000000007" as="sourcePoint" />
            <mxPoint x="1643.5599999999995" y="-302" as="targetPoint" />
          </mxGeometry>
        </mxCell>
        <mxCell id="ksXm-oh6WnX6pq403uTx-34" value="Push Image" style="text;html=1;resizable=0;labelBackgroundColor=default;align=center;verticalAlign=middle;fontStyle=1;fontColor=#333333;fontSize=30;" vertex="1" parent="ksXm-oh6WnX6pq403uTx-33">
          <mxGeometry x="0.42944688824753596" relative="1" as="geometry" />
        </mxCell>
        <mxCell id="ksXm-oh6WnX6pq403uTx-35" value="" style="html=1;overflow=block;blockSpacing=1;whiteSpace=wrap;shape=image;fontSize=13;spacing=0;strokeColor=none;strokeOpacity=100;rounded=1;absoluteArcSize=1;arcSize=9;strokeWidth=0;image=https://images.lucid.app/images/1f7c38de-4021-4505-9ed8-79a1b3b28d16/content;imageAspect=0;lucidId=GmjamG1HFxB_;" vertex="1" parent="1">
          <mxGeometry x="1838" y="522" width="188" height="48" as="geometry" />
        </mxCell>
        <mxCell id="ksXm-oh6WnX6pq403uTx-36" value="" style="html=1;overflow=block;blockSpacing=1;whiteSpace=wrap;shape=image;fontSize=13;spacing=0;strokeColor=none;strokeOpacity=100;rounded=1;absoluteArcSize=1;arcSize=9;strokeWidth=0;image=https://images.lucid.app/images/d2e2a75f-3b3b-47c8-826d-4abfdad9e539/content;imageAspect=0;lucidId=fnjawxeDKujo;" vertex="1" parent="1">
          <mxGeometry x="1650" y="630" width="98" height="66" as="geometry" />
        </mxCell>
        <mxCell id="ksXm-oh6WnX6pq403uTx-37" value="" style="html=1;overflow=block;blockSpacing=1;whiteSpace=wrap;fontSize=13;spacing=3.8;strokeOpacity=100;rounded=1;absoluteArcSize=1;arcSize=52.5;strokeWidth=NaN;lucidId=ypjaqEoXqGkN;" vertex="1" parent="1">
          <mxGeometry x="2318" y="427" width="308" height="146" as="geometry" />
        </mxCell>
        <mxCell id="ksXm-oh6WnX6pq403uTx-38" value="" style="html=1;overflow=block;blockSpacing=1;whiteSpace=wrap;shape=image;fontSize=13;spacing=0;strokeColor=none;strokeOpacity=100;rounded=1;absoluteArcSize=1;arcSize=9;strokeWidth=0;image=https://images.lucid.app/images/bda6786a-279f-499a-bef4-bef71761800b/content;imageAspect=0;lucidId=ypjasBk0wxtJ;" vertex="1" parent="1">
          <mxGeometry x="2318" y="466" width="210" height="106" as="geometry" />
        </mxCell>
        <mxCell id="ksXm-oh6WnX6pq403uTx-39" value="" style="html=1;overflow=block;blockSpacing=1;whiteSpace=wrap;shape=image;fontSize=13;spacing=0;strokeColor=none;strokeOpacity=100;rounded=1;absoluteArcSize=1;arcSize=9;strokeWidth=0;image=https://images.lucid.app/images/d2e2a75f-3b3b-47c8-826d-4abfdad9e539/content;imageAspect=0;lucidId=ypja1XRYOt8t;" vertex="1" parent="1">
          <mxGeometry x="2528" y="390" width="158" height="105" as="geometry" />
        </mxCell>
        <mxCell id="ksXm-oh6WnX6pq403uTx-40" value="" style="html=1;overflow=block;blockSpacing=1;whiteSpace=wrap;fontSize=13;spacing=3.8;strokeOpacity=100;rounded=1;absoluteArcSize=1;arcSize=52.5;strokeWidth=NaN;lucidId=ypja5GmUSas8;" vertex="1" parent="1">
          <mxGeometry x="2325" y="240" width="301" height="120" as="geometry" />
        </mxCell>
        <mxCell id="ksXm-oh6WnX6pq403uTx-41" value="" style="html=1;overflow=block;blockSpacing=1;whiteSpace=wrap;shape=image;fontSize=13;spacing=0;strokeColor=none;strokeOpacity=100;rounded=1;absoluteArcSize=1;arcSize=9;strokeWidth=0;image=https://images.lucid.app/images/d2e2a75f-3b3b-47c8-826d-4abfdad9e539/content;imageAspect=0;lucidId=ypja8I9xAifQ;" vertex="1" parent="1">
          <mxGeometry x="2528" y="207" width="169" height="113" as="geometry" />
        </mxCell>
        <mxCell id="ksXm-oh6WnX6pq403uTx-42" value="" style="html=1;overflow=block;blockSpacing=1;whiteSpace=wrap;shape=image;fontSize=13;spacing=0;strokeColor=none;strokeOpacity=100;rounded=1;absoluteArcSize=1;arcSize=9;strokeWidth=0;image=https://images.lucid.app/images/27fb8ab1-1369-48d4-91fe-b1b5149b84c4/content;imageAspect=0;lucidId=ypja5KeILMtY;" vertex="1" parent="1">
          <mxGeometry x="2288" y="240" width="197" height="148" as="geometry" />
        </mxCell>
        <mxCell id="ksXm-oh6WnX6pq403uTx-43" value="Application  " style="html=1;overflow=block;blockSpacing=1;whiteSpace=wrap;fontSize=23.3;fontStyle=1;spacing=3.8;strokeOpacity=100;rounded=1;absoluteArcSize=1;arcSize=52.5;strokeWidth=NaN;lucidId=ypjalc5g0AnH;" vertex="1" parent="1">
          <mxGeometry x="2325" y="660" width="204" height="124" as="geometry" />
        </mxCell>
        <mxCell id="ksXm-oh6WnX6pq403uTx-44" value="" style="html=1;overflow=block;blockSpacing=1;whiteSpace=wrap;fontSize=13;spacing=3.8;strokeOpacity=100;rounded=1;absoluteArcSize=1;arcSize=52.5;strokeWidth=NaN;lucidId=ypjagbKa8h8~;" vertex="1" parent="1">
          <mxGeometry x="2584" y="660" width="220" height="119" as="geometry" />
        </mxCell>
        <mxCell id="ksXm-oh6WnX6pq403uTx-45" value="" style="html=1;overflow=block;blockSpacing=1;whiteSpace=wrap;shape=image;fontSize=13;spacing=0;strokeColor=none;strokeOpacity=100;rounded=1;absoluteArcSize=1;arcSize=9;strokeWidth=0;image=https://images.lucid.app/images/fb1f0222-09ba-4870-adfd-8a522286fe4e/content;imageAspect=0;lucidId=ypjaNmJXG27~;" vertex="1" parent="1">
          <mxGeometry x="2600" y="672" width="196" height="98" as="geometry" />
        </mxCell>
        <mxCell id="ksXm-oh6WnX6pq403uTx-46" value="" style="html=1;overflow=block;blockSpacing=1;whiteSpace=wrap;fontSize=13;spacing=3.8;strokeOpacity=100;rounded=1;absoluteArcSize=1;arcSize=52.5;strokeWidth=NaN;lucidId=ypja9kiktLUX;" vertex="1" parent="1">
          <mxGeometry x="2648" y="480" width="204" height="124" as="geometry" />
        </mxCell>
        <mxCell id="ksXm-oh6WnX6pq403uTx-47" value="" style="html=1;overflow=block;blockSpacing=1;whiteSpace=wrap;shape=image;fontSize=13;spacing=0;strokeColor=none;strokeOpacity=100;rounded=1;absoluteArcSize=1;arcSize=9;strokeWidth=0;image=https://images.lucid.app/images/1f7c38de-4021-4505-9ed8-79a1b3b28d16/content;imageAspect=0;lucidId=ypjabld.6cD2;" vertex="1" parent="1">
          <mxGeometry x="2656" y="522" width="188" height="48" as="geometry" />
        </mxCell>
        <mxCell id="ksXm-oh6WnX6pq403uTx-48" value="" style="html=1;overflow=block;blockSpacing=1;whiteSpace=wrap;shape=image;fontSize=13;spacing=0;strokeColor=none;strokeOpacity=100;rounded=1;absoluteArcSize=1;arcSize=9;strokeWidth=0;image=https://images.lucid.app/images/d2e2a75f-3b3b-47c8-826d-4abfdad9e539/content;imageAspect=0;lucidId=ypja8X4uVrAm;" vertex="1" parent="1">
          <mxGeometry x="2468" y="630" width="98" height="66" as="geometry" />
        </mxCell>
        <mxCell id="ksXm-oh6WnX6pq403uTx-49" value="VPC Region: us-east1" style="html=1;overflow=block;blockSpacing=1;whiteSpace=wrap;fontSize=23;fontStyle=1;align=center;spacing=3.8;rounded=1;absoluteArcSize=1;arcSize=9;strokeWidth=NaN;lucidId=RrjabCWUmI-J;" vertex="1" parent="1">
          <mxGeometry x="3150" y="-56" width="120" height="120" as="geometry" />
        </mxCell>
        <mxCell id="ksXm-oh6WnX6pq403uTx-53" value="" style="html=1;jettySize=18;whiteSpace=wrap;fontSize=13;strokeColor=#3a414a;strokeOpacity=100;strokeWidth=2.3;rounded=1;arcSize=48;edgeStyle=orthogonalEdgeStyle;startArrow=none;exitX=0.025;exitY=0.5;exitPerimeter=0;entryX=1.003;entryY=0.5;entryPerimeter=0;lucidId=ixjaibN0dhsK;" edge="1" parent="1" source="ksXm-oh6WnX6pq403uTx-38" target="ksXm-oh6WnX6pq403uTx-3">
          <mxGeometry width="100" height="100" relative="1" as="geometry">
            <Array as="points" />
          </mxGeometry>
        </mxCell>
        <mxCell id="ksXm-oh6WnX6pq403uTx-54" value=" Pulls Manifest" style="text;html=1;resizable=0;labelBackgroundColor=default;align=center;verticalAlign=middle;fontStyle=1;fontSize=30;" vertex="1" parent="ksXm-oh6WnX6pq403uTx-53">
          <mxGeometry x="0.38559779192895993" relative="1" as="geometry" />
        </mxCell>
        <mxCell id="ksXm-oh6WnX6pq403uTx-55" value="" style="html=1;overflow=block;blockSpacing=1;whiteSpace=wrap;shape=image;fontSize=13;spacing=0;strokeColor=none;strokeOpacity=100;rounded=1;absoluteArcSize=1;arcSize=9;rotation=90;strokeWidth=0;image=https://images.lucid.app/images/d02e148c-afbe-48d9-a972-77bdaafe5808/content;imageAspect=0;lucidId=JGjaW.Wtckxs;" vertex="1" parent="1">
          <mxGeometry x="2094" y="991" width="187" height="186" as="geometry" />
        </mxCell>
        <mxCell id="ksXm-oh6WnX6pq403uTx-56" value="" style="html=1;jettySize=18;whiteSpace=wrap;fontSize=13;strokeColor=#3a414a;strokeOpacity=100;strokeWidth=2.3;rounded=1;arcSize=48;edgeStyle=orthogonalEdgeStyle;startArrow=none;exitX=0.5;exitY=1.009;exitPerimeter=0;entryX=0;entryY=0.396;entryPerimeter=0;lucidId=0HjaldJA4h-a;" edge="1" parent="1" source="ksXm-oh6WnX6pq403uTx-43" target="ksXm-oh6WnX6pq403uTx-55">
          <mxGeometry width="100" height="100" relative="1" as="geometry">
            <Array as="points" />
          </mxGeometry>
        </mxCell>
        <mxCell id="ksXm-oh6WnX6pq403uTx-57" value="" style="html=1;jettySize=18;whiteSpace=wrap;fontSize=13;strokeColor=#3a414a;strokeOpacity=100;strokeWidth=2.3;rounded=1;arcSize=48;edgeStyle=orthogonalEdgeStyle;startArrow=none;exitX=0.5;exitY=1.009;exitPerimeter=0;entryX=0;entryY=0.601;entryPerimeter=0;lucidId=gIjaJNgYm~cq;" edge="1" parent="1" source="ksXm-oh6WnX6pq403uTx-29" target="ksXm-oh6WnX6pq403uTx-55">
          <mxGeometry width="100" height="100" relative="1" as="geometry">
            <Array as="points" />
          </mxGeometry>
        </mxCell>
        <mxCell id="ksXm-oh6WnX6pq403uTx-58" value="" style="html=1;jettySize=18;whiteSpace=wrap;fontSize=13;strokeColor=#3a414a;strokeOpacity=100;strokeWidth=2.3;rounded=1;arcSize=48;edgeStyle=orthogonalEdgeStyle;startArrow=none;exitX=1;exitY=0.5;exitPerimeter=0;entryX=0.5;entryY=0;entryPerimeter=0;lucidId=dJjaoCgrjjD-;" edge="1" parent="1" source="ksXm-oh6WnX6pq403uTx-55" target="ksXm-oh6WnX6pq403uTx-59">
          <mxGeometry width="100" height="100" relative="1" as="geometry">
            <Array as="points" />
          </mxGeometry>
        </mxCell>
        <mxCell id="ksXm-oh6WnX6pq403uTx-59" value="" style="html=1;overflow=block;blockSpacing=1;whiteSpace=wrap;shape=image;fontSize=13;spacing=0;strokeColor=none;strokeOpacity=100;rounded=1;absoluteArcSize=1;arcSize=9;strokeWidth=0;image=https://images.lucid.app/images/73fdaae3-7c8a-49ca-8fcf-fff54ba7c468/content;imageAspect=0;lucidId=zKjaDCBFc.Af;" vertex="1" parent="1">
          <mxGeometry x="2086" y="1350" width="202" height="202" as="geometry" />
        </mxCell>
        <mxCell id="ksXm-oh6WnX6pq403uTx-60" value="Cloud NAT" style="html=1;overflow=block;blockSpacing=1;whiteSpace=wrap;fontSize=30;spacing=3.8;strokeOpacity=0;fillOpacity=0;rounded=1;absoluteArcSize=1;arcSize=9;fillColor=#ffffff;strokeWidth=NaN;lucidId=tLjaAbQViq2I;" vertex="1" parent="1">
          <mxGeometry x="2070" y="1177" width="218" height="38" as="geometry" />
        </mxCell>
        <mxCell id="ksXm-oh6WnX6pq403uTx-61" value="Private Cluster" style="html=1;overflow=block;blockSpacing=1;whiteSpace=wrap;fontSize=23.3;spacing=3.8;strokeOpacity=0;fillOpacity=0;rounded=1;absoluteArcSize=1;arcSize=9;fillColor=#ffffff;strokeWidth=NaN;lucidId=TMjaz66.UaAM;" vertex="1" parent="1">
          <mxGeometry x="2820" y="30" width="180" height="45" as="geometry" />
        </mxCell>
      </root>
    </mxGraphModel>
  </diagram>
</mxfile>
